<svg width="126" height="126" viewBox="0 0 126 126" fill="none" xmlns="http://www.w3.org/2000/svg">
<g id="Icon">
<circle id="bg" cx="63.3597" cy="63.2865" r="62.4994" fill="#E6ECF2"/>
<path id="Vector" d="M79.2937 49.0959H71.986V47.6344C71.9812 46.473 71.5177 45.3605 70.6965 44.5393C69.8753 43.7181 68.7628 43.2546 67.6014 43.2498H58.8322C57.6708 43.2546 56.5583 43.7181 55.7371 44.5393C54.9159 45.3605 54.4524 46.473 54.4476 47.6344V49.0959H47.1399C46.3646 49.0959 45.6211 49.4039 45.0729 49.9521C44.5248 50.5002 44.2168 51.2437 44.2168 52.019V75.4036C44.2168 76.1788 44.5248 76.9223 45.0729 77.4705C45.6211 78.0187 46.3646 78.3267 47.1399 78.3267H79.2937C80.069 78.3267 80.8125 78.0187 81.3606 77.4705C81.9088 76.9223 82.2168 76.1788 82.2168 75.4036V52.019C82.2168 51.2437 81.9088 50.5002 81.3606 49.9521C80.8125 49.4039 80.069 49.0959 79.2937 49.0959ZM57.3706 47.6344C57.3706 47.2467 57.5246 46.875 57.7987 46.6009C58.0728 46.3268 58.4446 46.1728 58.8322 46.1728H67.6014C67.989 46.1728 68.3608 46.3268 68.6349 46.6009C68.909 46.875 69.063 47.2467 69.063 47.6344V49.0959H57.3706V47.6344ZM68.3322 65.1728H64.6783V68.8267C64.6783 69.2143 64.5244 69.5861 64.2503 69.8601C63.9762 70.1342 63.6044 70.2882 63.2168 70.2882C62.8292 70.2882 62.4574 70.1342 62.1833 69.8601C61.9092 69.5861 61.7553 69.2143 61.7553 68.8267V65.1728H58.1014C57.7138 65.1728 57.342 65.0189 57.0679 64.7448C56.7939 64.4707 56.6399 64.0989 56.6399 63.7113C56.6399 63.3237 56.7939 62.9519 57.0679 62.6778C57.342 62.4037 57.7138 62.2498 58.1014 62.2498H61.7553V58.5959C61.7553 58.2083 61.9092 57.8365 62.1833 57.5624C62.4574 57.2884 62.8292 57.1344 63.2168 57.1344C63.6044 57.1344 63.9762 57.2884 64.2503 57.5624C64.5244 57.8365 64.6783 58.2083 64.6783 58.5959V62.2498H68.3322C68.7198 62.2498 69.0916 62.4037 69.3656 62.6778C69.6397 62.9519 69.7937 63.3237 69.7937 63.7113C69.7937 64.0989 69.6397 64.4707 69.3656 64.7448C69.0916 65.0189 68.7198 65.1728 68.3322 65.1728Z" fill="#0152A8"/>
</g>
</svg>
