<svg width="126" height="126" viewBox="0 0 126 126" fill="none" xmlns="http://www.w3.org/2000/svg">
<g id="Icon">
<circle id="bg" cx="62.6859" cy="63.2865" r="62.4994" fill="#E6ECF2"/>
<path id="Vector" d="M44.3081 56.3876L60.62 51.6391H60.6399L79.2764 46.1951C79.7511 46.0542 80.2523 46.0276 80.7391 46.1174C81.226 46.2071 81.6847 46.4108 82.0779 46.7117C82.4762 47.0045 82.7992 47.3878 83.0203 47.83C83.2414 48.2721 83.3542 48.7605 83.3495 49.2549V76.7925C83.3495 77.6322 83.0173 78.4377 82.4254 79.0333C81.8335 79.6289 81.0301 79.9662 80.1904 79.9714C79.8818 79.9722 79.5745 79.9321 79.2764 79.8522L62.6863 75.0043V77.3289C62.6863 78.172 62.3514 78.9806 61.7552 79.5768C61.1591 80.1729 60.3505 80.5079 59.5074 80.5079H53.1495C52.3064 80.5079 51.4978 80.1729 50.9016 79.5768C50.3055 78.9806 49.9706 78.172 49.9706 77.3289V71.3088L44.3081 69.6597C43.6488 69.4632 43.0705 69.0594 42.659 68.5082C42.2474 67.957 42.0244 67.2879 42.0232 66.6V59.4474C42.0244 58.7595 42.2474 58.0903 42.659 57.5391C43.0705 56.988 43.6488 56.5842 44.3081 56.3876ZM53.1495 77.3289H59.5074V74.0904L53.1495 72.2227V77.3289ZM45.2021 66.6L52.0369 68.5868L59.5074 70.7723V55.275L45.2021 59.4474V66.6Z" fill="#0152A8"/>
</g>
</svg>
