<svg width="126" height="126" viewBox="0 0 126 126" fill="none" xmlns="http://www.w3.org/2000/svg">
<g id="Icon">
<circle id="bg" cx="63.3373" cy="63.2865" r="62.4994" fill="#E6ECF2"/>
<path id="Vector" d="M83.8913 47.7034C83.6365 47.1239 83.2182 46.6314 82.6877 46.2862C82.1571 45.9409 81.5373 45.758 80.9043 45.7598H45.7557C45.1229 45.7649 44.5049 45.9521 43.9757 46.2992C43.4465 46.6463 43.0285 47.1384 42.7717 47.7168C42.5149 48.2952 42.4301 48.9354 42.5275 49.5607C42.625 50.186 42.9005 50.77 43.3211 51.2428L56.7831 66.0347V81.9927C56.7821 82.5865 56.9436 83.1692 57.2502 83.6777C57.5567 84.1862 57.9966 84.6011 58.5221 84.8774C58.9953 85.1275 59.5214 85.2608 60.0566 85.2662C60.7048 85.2664 61.3385 85.0741 61.8774 84.7138L68.4243 80.3355C68.8727 80.0376 69.2401 79.633 69.4936 79.1581C69.7471 78.6832 69.8788 78.1528 69.8769 77.6145V66.0347L83.3389 51.2428C83.7673 50.7717 84.048 50.1851 84.1462 49.556C84.2444 48.9268 84.1558 48.2827 83.8913 47.7034Z" fill="#0152A8"/>
</g>
</svg>
