<svg width="126" height="126" viewBox="0 0 126 126" fill="none" xmlns="http://www.w3.org/2000/svg">
<g id="Icon">
<circle id="bg" cx="63.0111" cy="63.2865" r="62.4994" fill="#E6ECF2"/>
<path id="Vector" d="M83.0366 54.1034C82.7575 54.3733 82.3844 54.5242 81.9961 54.5242C81.6078 54.5242 81.2347 54.3733 80.9555 54.1034L77.6148 50.7445L72.3756 55.9837L78.6554 62.2453C78.9296 62.5221 79.0835 62.8961 79.0835 63.2858C79.0835 63.6755 78.9296 64.0495 78.6554 64.3263C78.3762 64.5963 78.0031 64.7471 77.6148 64.7471C77.2265 64.7471 76.8534 64.5963 76.5743 64.3263L75.4242 63.158L60.0898 78.4924C59.542 79.0388 58.8008 79.3471 58.027 79.3504H49.0089L45.0658 83.3118C44.7867 83.5817 44.4136 83.7326 44.0253 83.7326C43.637 83.7326 43.2639 83.5817 42.9847 83.3118C42.7105 83.0349 42.5566 82.6609 42.5566 82.2712C42.5566 81.8815 42.7105 81.5076 42.9847 81.2307L46.9461 77.2875V68.2695C46.9494 67.4957 47.2577 66.7545 47.8041 66.2066L49.8487 64.1621C49.9852 64.0283 50.1687 63.9533 50.3598 63.9533C50.551 63.9533 50.7345 64.0283 50.871 64.1621L56.1285 69.4378C56.4076 69.7077 56.7807 69.8586 57.169 69.8586C57.5573 69.8586 57.9304 69.7077 58.2096 69.4378C58.4838 69.1609 58.6377 68.787 58.6377 68.3973C58.6377 68.0075 58.4838 67.6336 58.2096 67.3567L52.9338 62.0992C52.8 61.9627 52.7251 61.7792 52.7251 61.5881C52.7251 61.3969 52.8 61.2134 52.9338 61.0769L56.4206 57.5902C56.5571 57.4564 56.7406 57.3814 56.9317 57.3814C57.1228 57.3814 57.3063 57.4564 57.4428 57.5902L62.7003 62.8659C62.9795 63.1358 63.3526 63.2867 63.7409 63.2867C64.1292 63.2867 64.5023 63.1358 64.7814 62.8659C65.0557 62.589 65.2095 62.2151 65.2095 61.8254C65.2095 61.4357 65.0557 61.0617 64.7814 60.7848L59.5057 55.5273C59.3719 55.3908 59.2969 55.2073 59.2969 55.0162C59.2969 54.8251 59.3719 54.6415 59.5057 54.505L63.1385 50.8723L62.0249 49.7587C61.7491 49.4869 61.5878 49.1197 61.5742 48.7327C61.5607 48.3456 61.6958 47.9681 61.9519 47.6776C62.0869 47.5366 62.2485 47.4238 62.4274 47.3456C62.6062 47.2674 62.7988 47.2254 62.9939 47.222C63.1891 47.2187 63.383 47.2539 63.5645 47.3259C63.746 47.3978 63.9114 47.5049 64.0512 47.6411L70.3128 53.9209L75.552 48.6816L72.2478 45.3774C71.972 45.1056 71.8107 44.7385 71.7972 44.3514C71.7836 43.9644 71.9187 43.5869 72.1748 43.2964C72.3098 43.1554 72.4714 43.0426 72.6503 42.9644C72.8291 42.8862 73.0217 42.8442 73.2169 42.8408C73.412 42.8374 73.6059 42.8727 73.7874 42.9446C73.9689 43.0165 74.1343 43.1237 74.2741 43.2598L83.0366 52.0223C83.3109 52.2992 83.4647 52.6732 83.4647 53.0629C83.4647 53.4526 83.3109 53.8265 83.0366 54.1034Z" fill="#0152A8"/>
</g>
</svg>
